<mxfile host="app.diagrams.net" modified="2024-02-06T04:48:55.805Z" agent="Mozilla/5.0 (Windows NT 10.0; Win64; x64) AppleWebKit/537.36 (KHTML, like Gecko) Chrome/121.0.0.0 Safari/537.36" version="23.1.1" etag="g8Zhphhq94YDkkcWjG6-" type="github">
  <diagram name="페이지-1" id="y88Ug3sZVimrGXpxR_aZ">
    <mxGraphModel>
      <root>
        <mxCell id="0" />
        <mxCell id="1" parent="0" />
      </root>
    </mxGraphModel>
  </diagram>
</mxfile>
